<svg width="550" height="144" viewBox="0 0 550 144" fill="none" xmlns="http://www.w3.org/2000/svg">
<path d="M5.74996 62.4906H0V15.3009H33.0623V62.4906H27.3123V20.8778H5.74996V62.4906Z" fill="white"/>
<path d="M48.8466 62.4906H43.0967V15.3009H69.9059L78.3152 23.8808V35.3207L69.9059 43.9007H48.8466V62.4906ZM48.8466 21.0208V38.1807H67.4621L72.5652 32.9613V26.3118L67.4621 21.0208H48.8466Z" fill="white"/>
<path d="M129.29 15.3009H164.508V20.7348H135.04V62.4906H129.29V15.3009Z" fill="white"/>
<path d="M178.137 62.4906H172.387V15.3009H241.614L250.024 23.8808V35.3207L241.614 43.9007H178.137V62.4906ZM178.137 21.0208V38.1807H239.171L244.274 32.9613V26.3118L239.171 21.0208H178.137Z" fill="white"/>
<path d="M292.498 15.3009V20.7349H264.108V35.3208H288.186V40.7547H264.108V57.0566H292.498V62.4906H258.358V15.3009H292.498Z" fill="white"/>
<path d="M327.257 62.4906H310.367L300.017 51.4081V26.3833L310.367 15.3009H327.257L336.601 25.2393L331.857 28.5998L324.742 21.0209H312.882L305.839 28.5283V49.2632L312.882 56.7706H324.742L331.857 49.1917L336.673 52.2661L327.257 62.4906Z" fill="white"/>
<path d="M370.354 62.4906H353.464L343.114 51.4081V26.3833L353.464 15.3009H370.354L379.698 25.2393L374.954 28.5998L367.838 21.0209H355.979L348.935 28.5283V49.2632L355.979 56.7706H367.838L374.954 49.1917L379.77 52.2661L370.354 62.4906Z" fill="white"/>
<path d="M394.476 62.4906H387.648V15.3009H393.398V52.3376H393.685L414.96 15.3009H420.71V62.4906H414.96V27.0268H414.601L394.476 62.4906Z" fill="white"/>
<path d="M436.494 62.4906H430.744V15.3009H457.554L465.963 23.8808V35.3208L457.554 43.9007H436.494V62.4906ZM436.494 21.0209V38.1807H455.11L460.213 32.9613V26.3118L455.11 21.0209H436.494Z" fill="white"/>
<path d="M491.235 62.4906H486.563V58.0576L491.378 46.9037L491.163 46.5462H483.975L473.05 19.7339V15.3009H477.507L487.785 40.8262H493.894L503.885 15.3009H508.413V19.7339L491.235 62.4906Z" fill="white"/>
<path d="M523.766 62.4906H516.938V15.3009H522.688V52.3376H522.975L544.25 15.3009H550V62.4906H544.25V27.0268H543.891L523.766 62.4906ZM539.938 11.7259H527.072L521.825 6.43495V0H527.431V4.50447L529.3 6.36345H537.709L539.578 4.43297V0H545.184V6.43495L539.938 11.7259Z" fill="white"/>
<path d="M26.0905 133.99H0V86.8004H26.0905L34.4998 94.6653V105.462L29.4686 109.68V110.395L34.4998 114.685V126.125L26.0905 133.99ZM5.74996 92.5203V107.249H24.1498L28.7498 103.317V97.0963L23.8624 92.5203H5.74996ZM5.74996 112.826V128.27H23.8624L28.7498 123.694V116.83L24.1498 112.826H5.74996Z" fill="white"/>
<path d="M79.7527 128.342V144H74.0746V133.99H43.7435V144H38.0654V128.342H45.2529L47.9123 120.548V86.8004H73.284V128.342H79.7527ZM53.5903 120.906L51.2185 128.342H67.6059V92.4488H53.5903V120.906Z" fill="white"/>
<path d="M95.1058 133.99L84.7558 122.908V26.3833L95.1058 15.3009H110.343L120.693 26.3833V122.908L110.343 133.99H95.1058ZM90.5058 28.5998V120.691L97.6214 128.27H107.828L114.943 120.691V28.5998L107.828 21.0208H97.6214L90.5058 28.5998Z" fill="white"/>
<path d="M132.596 133.99H128.212V129.629L142.156 109.895L129.577 91.0904V86.8004H133.962L145.677 105.533H145.965L157.68 86.8004H162.065V91.0904L149.487 109.895L163.43 129.629V133.99H159.046L145.965 114.471H145.677L132.596 133.99Z" fill="white"/>
<path d="M199.699 106.749V86.8004H205.449V133.99H199.699V112.254H178.28V133.99H172.387V86.8004H178.28V106.749H199.699Z" fill="white"/>
<path d="M224.396 133.99L214.046 122.908V97.8828L224.396 86.8004H239.633L249.983 97.8828V122.908L239.633 133.99H224.396ZM219.796 100.099V120.691L226.911 128.27H237.118L244.233 120.691V100.099L237.118 92.5203H226.911L219.796 100.099Z" fill="white"/>
<path d="M284.67 133.99H258.58V86.8004H284.67L293.08 94.6653V105.462L288.048 109.68V110.395L293.08 114.685V126.125L284.67 133.99ZM264.33 92.5203V107.249H282.73L287.33 103.317V97.0963L282.442 92.5203H264.33ZM264.33 112.826V128.27H282.442L287.33 123.694V116.83L282.73 112.826H264.33Z" fill="white"/>
<path d="M298.802 133.99V128.27H304.552L307.211 122.05V86.8004H334.739V133.99H328.989V92.4488H312.961V123.337L308.145 133.99H298.802Z" fill="white"/>
<path d="M342.617 95.3803L351.026 86.8004H377.836V133.99H372.086V115.4H366.551L347.864 133.99H343.551V129.772L358.286 115.4H351.026L342.617 106.82V95.3803ZM353.47 109.68H372.086V92.5203H353.47L348.367 97.8113V104.461L353.47 109.68Z" fill="white"/>
<path d="M394.698 133.99H387.87V86.8004H393.62V123.837H393.907L415.182 86.8004H420.932V133.99H415.182V98.5263H414.823L394.698 133.99ZM410.87 83.2254H398.004L392.757 77.9344V71.4995H398.364V76.004L400.232 77.8629H408.642L410.51 75.9325V71.4995H416.117V77.9344L410.87 83.2254Z" fill="white"/>
</svg>
