<svg width="221" height="29" viewBox="0 0 221 29" fill="none" xmlns="http://www.w3.org/2000/svg">
<path d="M3.25331 29H0V7.12571H2.73964V24.2937H2.8766L13.0132 7.12571H15.7529V29H13.0132V12.5611H12.842L3.25331 29Z" fill="white"/>
<path d="M33.5471 16.3726V7.12571H36.2867V29H33.5471V18.9246H23.342V29H20.5339V7.12571H23.342V16.3726H33.5471Z" fill="white"/>
<path d="M47.5744 9.67771H39.6979V7.12571H58.1904V9.67771H50.314L50.3825 29H47.5059L47.5744 9.67771Z" fill="white"/>
<path d="M98.7727 7.12571V9.64456H64.3412V16.4057H96.718V18.9246H64.3412V26.4811H98.7727V29H61.6016V7.12571H98.7727Z" fill="white"/>
<path d="M102.578 7.09257H119.358V9.61143H105.317V28.9669H102.578V7.09257Z" fill="white"/>
<path d="M125.851 28.9669H123.112V7.09257H135.885L139.892 11.0697V16.3726L135.885 20.3497H125.851V28.9669ZM125.851 9.744V17.6983H134.721L137.152 15.2789V12.1966L134.721 9.744H125.851Z" fill="white"/>
<path d="M146.899 28.9669H143.646V7.09257H146.385V24.2606H146.522L156.659 7.09257H159.398V28.9669H156.659V12.528H156.488L146.899 28.9669Z" fill="white"/>
<path d="M166.919 28.9669H164.179V7.09257H176.953L180.96 11.0697V16.3726L176.953 20.3497H166.919V28.9669ZM166.919 9.744V17.6983H175.789L178.22 15.2789V12.1966L175.789 9.744H166.919Z" fill="white"/>
<path d="M193.001 28.9669H190.775V26.912L193.069 21.7417L192.966 21.576H189.542L184.337 9.14743V7.09257H186.46L191.357 18.9246H194.268L199.028 7.09257H201.185V9.14743L193.001 28.9669Z" fill="white"/>
<path d="M208.5 28.9669H205.247V7.09257H207.987V24.2606H208.124L218.26 7.09257H221V28.9669H218.26V12.528H218.089L208.5 28.9669ZM216.206 5.43543H210.076L207.576 2.98286V0H210.247V2.088L211.137 2.94971H215.144L216.034 2.05486V0H218.706V2.98286L216.206 5.43543Z" fill="white"/>
</svg>
