<svg width="464" height="62" viewBox="0 0 464 62" fill="none" xmlns="http://www.w3.org/2000/svg">
<path d="M6.83048 62H0V15.2343H5.75199V51.9383H6.03957L27.3219 15.2343H33.0739V62H27.3219V26.8548H26.9624L6.83048 62Z" fill="white"/>
<path d="M70.4337 35.0034V15.2343H76.1857V62H70.4337V40.4594H49.0076V62H43.1118V15.2343H49.0076V35.0034H70.4337Z" fill="white"/>
<path d="M99.8846 20.6903H83.3476V15.2343H122.174V20.6903H105.637L105.78 62H99.7409L99.8846 20.6903Z" fill="white"/>
<path d="M207.378 15.2343V20.6194H135.087V35.0743H203.064V40.4594H135.087V56.6149H207.378V62H129.335V15.2343H207.378Z" fill="white"/>
<path d="M215.367 15.1634H250.598V20.5486H221.119V61.9292H215.367V15.1634Z" fill="white"/>
<path d="M264.231 61.9292H258.479V15.1634H285.297L293.71 23.6663V35.0034L285.297 43.5063H264.231V61.9292ZM264.231 20.832V37.8377H282.853L287.958 32.6652V26.0754L282.853 20.832H264.231Z" fill="white"/>
<path d="M308.421 61.9292H301.591V15.1634H307.343V51.8674H307.63L328.913 15.1634H334.665V61.9292H328.913V26.784H328.553L308.421 61.9292Z" fill="white"/>
<path d="M350.454 61.9292H344.702V15.1634H371.521L379.933 23.6663V35.0034L371.521 43.5063H350.454V61.9292ZM350.454 20.832V37.8377H369.076L374.181 32.6652V26.0754L369.076 20.832H350.454Z" fill="white"/>
<path d="M405.214 61.9292H400.541V57.536L405.358 46.4823L405.142 46.128H397.952L387.023 19.5566V15.1634H391.481L401.763 40.4594H407.874L417.868 15.1634H422.398V19.5566L405.214 61.9292Z" fill="white"/>
<path d="M437.757 61.9292H430.926V15.1634H436.678V51.8674H436.966L458.248 15.1634H464V61.9292H458.248V26.784H457.889L437.757 61.9292ZM453.934 11.6206H441.064L435.815 6.37714V0H441.423V4.464L443.293 6.30629H451.705L453.574 4.39314V0H459.183V6.37714L453.934 11.6206Z" fill="white"/>
</svg>
