<svg width="200" height="34" viewBox="0 0 200 34" fill="none" xmlns="http://www.w3.org/2000/svg">
<path d="M12.3965 29.3057H0V7.17554H12.3965L16.3921 10.8639V15.927L14.0016 17.9053V18.2406L16.3921 20.2525V25.6173L12.3965 29.3057ZM2.73201 9.85799V16.7653H11.4745L13.6601 14.9211V12.0039L11.3379 9.85799H2.73201ZM2.73201 19.3807V26.6233H11.3379L13.6601 24.4773V21.2584L11.4745 19.3807H2.73201Z" fill="white"/>
<path d="M37.8934 26.6568V34H35.1955V29.3057H20.7841V34H18.0863V26.6568H21.5013L22.7648 23.002V7.17554H34.8198V26.6568H37.8934ZM25.4627 23.1696L24.3357 26.6568H32.122V9.82446H25.4627V23.1696Z" fill="white"/>
<path d="M63.0012 29.3057H60.9181V27.2603L67.5432 18.0059L61.5669 9.18737V7.17554H63.6501L69.2166 15.9605H69.3531L74.9196 7.17554H77.0028V9.18737L71.0265 18.0059L77.6516 27.2603V29.3057H75.5685L69.3531 20.1519H69.2166L63.0012 29.3057Z" fill="white"/>
<path d="M94.8841 16.5306V7.17554H97.6162V29.3057H94.8841V19.1124H84.7074V29.3057H81.9071V7.17554H84.7074V16.5306H94.8841Z" fill="white"/>
<path d="M106.618 29.3057L101.701 24.1085V12.3728L106.618 7.17554H113.858L118.776 12.3728V24.1085L113.858 29.3057H106.618ZM104.433 13.4122V23.069L107.814 26.6233H112.663L116.044 23.069V13.4122L112.663 9.85799H107.814L104.433 13.4122Z" fill="white"/>
<path d="M135.257 29.3057H122.861V7.17554H135.257L139.253 10.8639V15.927L136.862 17.9053V18.2406L139.253 20.2525V25.6173L135.257 29.3057ZM125.593 9.85799V16.7653H134.335L136.521 14.9211V12.0039L134.198 9.85799H125.593ZM125.593 19.3807V26.6233H134.198L136.521 24.4773V21.2584L134.335 19.3807H125.593Z" fill="white"/>
<path d="M141.971 29.3057V26.6233H144.703L145.967 23.7061V7.17554H159.046V29.3057H156.314V9.82446H148.699V24.3097L146.411 29.3057H141.971Z" fill="white"/>
<path d="M162.79 11.1992L166.785 7.17554H179.523V29.3057H176.791V20.5878H174.162L165.283 29.3057H163.234V27.3274L170.234 20.5878H166.785L162.79 16.5641V11.1992ZM167.946 17.9053H176.791V9.85799H167.946L165.522 12.3392V15.4576L167.946 17.9053Z" fill="white"/>
<path d="M187.535 29.3057H184.291V7.17554H187.023V24.5444H187.16L197.268 7.17554H200V29.3057H197.268V12.6746H197.097L187.535 29.3057ZM195.219 5.49901H189.106L186.613 3.01775V0H189.277V2.11242L190.165 2.98422H194.16L195.048 2.07889V0H197.712V3.01775L195.219 5.49901Z" fill="white"/>
<path d="M45.1722 29.439L40.2546 24.2418V12.5061L45.1722 7.30885H52.412L57.3296 12.5061V24.2418L52.412 29.439H45.1722ZM42.9866 13.5455V23.2023L46.3674 26.7566H51.2168L54.5976 23.2023V13.5455L51.2168 9.99129H46.3674L42.9866 13.5455Z" fill="white"/>
</svg>
