<svg width="262" height="29" viewBox="0 0 262 29" fill="none" xmlns="http://www.w3.org/2000/svg">
<path d="M2.73907 29H0V7.10068H15.7497V29H13.0106V9.68878H2.73907V29Z" fill="white"/>
<path d="M23.2688 29H20.5297V7.10068H33.3006L37.3065 11.0824V16.3913L33.3006 20.373H23.2688V29ZM23.2688 9.75514V17.7185H32.1365L34.5674 15.2963V12.2105L32.1365 9.75514H23.2688Z" fill="white"/>
<path d="M61.589 7.10068H78.3659V9.62242H64.3281V29H61.589V7.10068Z" fill="white"/>
<path d="M84.8578 29H82.1187V7.10068H115.096L119.102 11.0824V16.3913L115.096 20.373H84.8578V29ZM84.8578 9.75514V17.7185H113.932L116.363 15.2963V12.2105L113.932 9.75514H84.8578Z" fill="white"/>
<path d="M139.336 7.10069V9.62242H125.811V16.3913H137.281V18.913H125.811V26.4783H139.336V29H123.072V7.10069H139.336Z" fill="white"/>
<path d="M155.894 29H147.847L142.917 23.857V12.2437L147.847 7.10069H155.894L160.345 11.7128L158.085 13.2723L154.695 9.75515H149.046L145.69 13.2391V22.8616L149.046 26.3455H154.695L158.085 22.8284L160.379 24.2551L155.894 29Z" fill="white"/>
<path d="M176.423 29H168.377L163.447 23.857V12.2437L168.377 7.10069H176.423L180.874 11.7128L178.614 13.2723L175.225 9.75515H169.576L166.22 13.2391V22.8616L169.576 26.3455H175.225L178.614 22.8284L180.908 24.2551L176.423 29Z" fill="white"/>
<path d="M187.914 29H184.661V7.10069H187.4V24.2883H187.537L197.672 7.10069H200.411V29H197.672V12.5423H197.501L187.914 29Z" fill="white"/>
<path d="M207.93 29H205.191V7.10069H217.962L221.968 11.0824V16.3913L217.962 20.373H207.93V29ZM207.93 9.75515V17.7185H216.798L219.229 15.2963V12.2105L216.798 9.75515H207.93Z" fill="white"/>
<path d="M234.006 29H231.781V26.9428L234.075 21.7666L233.972 21.6007H230.548L225.344 9.15789V7.10069H227.467L232.363 18.9462H235.273L240.032 7.10069H242.189V9.15789L234.006 29Z" fill="white"/>
<path d="M249.503 29H246.25V7.10069H248.989V24.2883H249.126L259.261 7.10069H262V29H259.261V12.5423H259.09L249.503 29ZM257.207 5.44165H251.078L248.579 2.98627V0H251.249V2.09039L252.139 2.95309H256.145L257.035 2.05721V0H259.706V2.98627L257.207 5.44165Z" fill="white"/>
<path d="M45.3049 29L40.3746 23.857V12.2437L45.3049 7.10068H52.5635L57.4938 12.2437V23.857L52.5635 29H45.3049ZM43.1137 13.2723V22.8284L46.5033 26.3455H51.3651L54.7547 22.8284V13.2723L51.3651 9.75515H46.5033L43.1137 13.2723Z" fill="white"/>
</svg>
