<svg width="25" height="24" viewBox="0 0 25 24" fill="none" xmlns="http://www.w3.org/2000/svg">
<g clip-path="url(#clip0_500_550)">
<path fill-rule="evenodd" clip-rule="evenodd" d="M2.18707 1.68707C0.5 3.37413 0.5 6.0894 0.5 11.52V12.48C0.5 17.9106 0.5 20.6259 2.18707 22.313C3.87413 24 6.5894 24 12.02 24H12.98C18.4106 24 21.1259 24 22.813 22.313C24.5 20.6259 24.5 17.9106 24.5 12.48V11.52C24.5 6.0894 24.5 3.37413 22.813 1.68707C21.1259 0 18.4106 0 12.98 0H12.02C6.5894 0 3.87413 0 2.18707 1.68707ZM4.55006 7.30005C4.68006 13.54 7.80005 17.2901 13.2701 17.2901H13.5801V13.72C15.5901 13.92 17.11 15.3901 17.72 17.2901H20.56C19.78 14.4501 17.7299 12.8801 16.45 12.2801C17.7299 11.5401 19.5299 9.74005 19.9599 7.30005H17.3799C16.8199 9.28005 15.1601 11.08 13.5801 11.25V7.30005H11V14.22C9.4 13.8201 7.38005 11.88 7.29005 7.30005H4.55006Z" fill="white" fill-opacity="0.9"/>
</g>
<defs>
<clipPath id="clip0_500_550">
<rect width="24" height="24" fill="white" transform="translate(0.5)"/>
</clipPath>
</defs>
</svg>
