<svg width="26" height="24" viewBox="0 0 26 24" fill="none" xmlns="http://www.w3.org/2000/svg">
<path d="M0.5 24L2.25729 17.837C1.17292 16.033 0.603125 13.988 0.604166 11.891C0.607291 5.335 6.16457 0 12.9927 0C16.3062 0.001 19.4166 1.24 21.7562 3.488C24.0947 5.736 25.3822 8.724 25.3812 11.902C25.3781 18.459 19.8208 23.794 12.9927 23.794C10.9198 23.793 8.87706 23.294 7.06769 22.346L0.5 24ZM7.37186 20.193C9.11769 21.188 10.7844 21.784 12.9885 21.785C18.6635 21.785 23.2864 17.351 23.2895 11.9C23.2916 6.438 18.6906 2.01 12.9968 2.008C7.31769 2.008 2.69791 6.442 2.69583 11.892C2.69479 14.117 3.37395 15.783 4.51457 17.526L3.47395 21.174L7.37186 20.193ZM19.2333 14.729C19.1562 14.605 18.95 14.531 18.6395 14.382C18.3302 14.233 16.8083 13.514 16.5239 13.415C16.2406 13.316 16.0343 13.266 15.827 13.564C15.6208 13.861 15.0271 14.531 14.8468 14.729C14.6666 14.927 14.4854 14.952 14.176 14.803C13.8666 14.654 12.8687 14.341 11.6864 13.328C10.7666 12.54 10.1448 11.567 9.96456 11.269C9.78435 10.972 9.94581 10.811 10.1 10.663C10.2396 10.53 10.4094 10.316 10.5646 10.142C10.7219 9.97 10.7729 9.846 10.8771 9.647C10.9802 9.449 10.9291 9.275 10.851 9.126C10.7729 8.978 10.1541 7.515 9.89685 6.92C9.64477 6.341 9.38956 6.419 9.19998 6.41L8.60623 6.4C8.39998 6.4 8.06457 6.474 7.78123 6.772C7.4979 7.07 6.6979 7.788 6.6979 9.251C6.6979 10.714 7.80728 12.127 7.96144 12.325C8.11665 12.523 10.1437 15.525 13.2489 16.812C13.9875 17.118 14.5646 17.301 15.0135 17.438C15.7552 17.664 16.4302 17.632 16.9635 17.556C17.5583 17.471 18.7948 16.837 19.0531 16.143C19.3114 15.448 19.3114 14.853 19.2333 14.729Z" fill="white" fill-opacity="0.9"/>
</svg>
